<?xml version="1.0" encoding="iso-8859-1"?>
<!-- Generator: Adobe Illustrator 30.0.0, SVG Export Plug-In . SVG Version: 9.03 Build 0)  -->
<svg version="1.1" id="a" xmlns="http://www.w3.org/2000/svg" xmlns:xlink="http://www.w3.org/1999/xlink" x="0px" y="0px"
	 width="776.367px" height="776.367px" viewBox="0 0 776.367 776.367" enable-background="new 0 0 776.367 776.367"
	 xml:space="preserve">
<g>
	<path d="M217.022,245.848H-0.001v279.196h50.052V404.607H166.97v120.437h174.677v-42.23l-124.625-0.001L217.022,245.848
		L217.022,245.848z M166.97,363.157H50.051v-75.078H166.97V363.157z"/>
	<path d="M538.925,401.481v-0.002c0-46.533-20.723-84.853-86.025-84.853c-52.789,0-80.161,35.192-85.636,68.039h44.968
		c5.083-19.551,20.334-31.674,41.448-31.674c23.854,0,38.322,9.777,38.322,25.809c0,17.205-12.122,21.897-37.93,25.808
		c-28.935,4.302-96.192,9.385-96.192,65.302c0,32.847,25.806,60.61,70.775,60.61c39.496,0,56.31-21.507,63.739-37.539h0.391v9.776
		c0,7.43,0.391,14.859,1.563,22.289h48.097c-2.346-12.513-3.52-32.455-3.52-48.097L538.925,401.481L538.925,401.481z
		 M492.784,431.197c0,47.314-25.026,63.347-51.618,63.347c-23.069,0-35.973-11.34-35.973-26.589
		c0-16.033,13.293-24.636,40.668-29.719c31.281-6.256,42.231-15.249,46.923-25.808V431.197z"/>
	<path d="M682.127,317.407L682.127,317.407c-35.193,0-57.09,22.68-63.737,40.276h-0.391V245.848h-48.88v279.196h49.663v-33.237
		h0.389c7.04,16.422,28.155,38.321,62.565,38.321c55.135,0,94.631-42.231,94.631-106.752
		C776.367,359.248,737.262,317.407,682.127,317.407z M671.96,492.197c-39.102,0-57.481-33.237-57.481-68.821
		c0-34.802,19.553-67.648,57.481-67.648c36.759,0,57.092,29.719,57.092,67.648C729.052,462.088,709.499,492.197,671.96,492.197z"/>
</g>
</svg>
